<svg width="34" height="34" viewBox="0 0 34 34" fill="none" xmlns="http://www.w3.org/2000/svg">
<path d="M33.1 14.0833L18.1 0.750007C17.7958 0.482808 17.4048 0.335449 17 0.335449C16.5951 0.335449 16.2041 0.482808 15.9 0.750007L0.899974 14.0833C0.645034 14.3089 0.465254 14.607 0.384807 14.9378C0.304359 15.2685 0.327101 15.6159 0.449974 15.9333C0.570838 16.2466 0.783482 16.516 1.06006 16.7063C1.33663 16.8967 1.66424 16.999 1.99997 17H3.66664V32C3.66664 32.442 3.84224 32.866 4.1548 33.1785C4.46736 33.4911 4.89128 33.6667 5.33331 33.6667H28.6666C29.1087 33.6667 29.5326 33.4911 29.8452 33.1785C30.1577 32.866 30.3333 32.442 30.3333 32V17H32C32.3357 16.999 32.6633 16.8967 32.9399 16.7063C33.2165 16.516 33.4291 16.2466 33.55 15.9333C33.6728 15.6159 33.6956 15.2685 33.6151 14.9378C33.5347 14.607 33.3549 14.3089 33.1 14.0833ZM18.6666 30.3333H15.3333V25.3333C15.3333 24.8913 15.5089 24.4674 15.8215 24.1548C16.134 23.8423 16.5579 23.6667 17 23.6667C17.442 23.6667 17.8659 23.8423 18.1785 24.1548C18.491 24.4674 18.6666 24.8913 18.6666 25.3333V30.3333ZM27 30.3333H22V25.3333C22 24.0073 21.4732 22.7355 20.5355 21.7978C19.5978 20.8601 18.3261 20.3333 17 20.3333C15.6739 20.3333 14.4021 20.8601 13.4644 21.7978C12.5268 22.7355 12 24.0073 12 25.3333V30.3333H6.99997V17H27V30.3333ZM6.38331 13.6667L17 4.23334L27.6166 13.6667H6.38331Z" fill="#8896AB"/>
</svg>
