<svg width="67" height="67" viewBox="0 0 67 67" fill="none" xmlns="http://www.w3.org/2000/svg">
<g filter="url(#filter0_d_2_7148)">
<g clip-path="url(#clip0_2_7148)">
<path d="M37.4766 27.5772L33.234 31.8198L28.9914 27.5772C28.8038 27.3896 28.5495 27.2843 28.2842 27.2843C28.019 27.2843 27.7647 27.3896 27.5771 27.5772C27.3896 27.7647 27.2842 28.019 27.2842 28.2843C27.2842 28.5495 27.3896 28.8038 27.5771 28.9914L31.8198 33.234L27.5771 37.4766C27.3896 37.6642 27.2842 37.9185 27.2842 38.1838C27.2842 38.449 27.3896 38.7033 27.5771 38.8909C27.7647 39.0784 28.019 39.1838 28.2842 39.1838C28.5495 39.1838 28.8038 39.0784 28.9914 38.8909L33.234 34.6482L37.4766 38.8909C37.6642 39.0784 37.9185 39.1838 38.1837 39.1838C38.449 39.1838 38.7033 39.0784 38.8909 38.8909C39.0784 38.7033 39.1837 38.449 39.1837 38.1838C39.1837 37.9185 39.0784 37.6642 38.8909 37.4766L34.6482 33.234L38.8909 28.9914C39.0784 28.8038 39.1837 28.5495 39.1837 28.2843C39.1837 28.019 39.0784 27.7647 38.8909 27.5772C38.7033 27.3896 38.449 27.2843 38.1837 27.2843C37.9185 27.2843 37.6642 27.3896 37.4766 27.5772Z" fill="#22C55E"/>
</g>
</g>
<defs>
<filter id="filter0_d_2_7148" x="-2" y="-1" width="70.468" height="70.468" filterUnits="userSpaceOnUse" color-interpolation-filters="sRGB">
<feFlood flood-opacity="0" result="BackgroundImageFix"/>
<feColorMatrix in="SourceAlpha" type="matrix" values="0 0 0 0 0 0 0 0 0 0 0 0 0 0 0 0 0 0 127 0" result="hardAlpha"/>
<feOffset dy="1"/>
<feGaussianBlur stdDeviation="1"/>
<feColorMatrix type="matrix" values="0 0 0 0 0.411765 0 0 0 0 0.317647 0 0 0 0 1 0 0 0 0.05 0"/>
<feBlend mode="normal" in2="BackgroundImageFix" result="effect1_dropShadow_2_7148"/>
<feBlend mode="normal" in="SourceGraphic" in2="effect1_dropShadow_2_7148" result="shape"/>
</filter>
<clipPath id="clip0_2_7148">
<path d="M16.2635 48.7904C7.2814 39.8083 7.2814 25.2455 16.2635 16.2635C25.2455 7.2814 39.8083 7.2814 48.7904 16.2635L50.2046 17.6777C59.1866 26.6597 59.1866 41.2225 50.2046 50.2046C41.2225 59.1866 26.6597 59.1866 17.6777 50.2046L16.2635 48.7904Z" fill="white"/>
</clipPath>
</defs>
</svg>
