<svg width="16" height="16" viewBox="0 0 16 16" fill="none" xmlns="http://www.w3.org/2000/svg">
<path d="M14.0467 11.22L12.6667 9.80666C12.3698 9.52449 11.9954 9.33754 11.5915 9.26982C11.1876 9.20211 10.7726 9.25672 10.4 9.42666L9.8 8.82666C10.507 7.88194 10.8299 6.70444 10.7037 5.53122C10.5775 4.35799 10.0114 3.27614 9.11962 2.50346C8.22779 1.73077 7.07635 1.32463 5.89711 1.36678C4.71786 1.40893 3.59836 1.89625 2.76398 2.73064C1.92959 3.56502 1.44227 4.68452 1.40012 5.86377C1.35797 7.04301 1.76412 8.19445 2.5368 9.08628C3.30948 9.97811 4.39133 10.5441 5.56456 10.6704C6.73778 10.7966 7.91528 10.4737 8.86 9.76666L9.45333 10.36C9.26339 10.7331 9.19532 11.1564 9.25871 11.5702C9.3221 11.984 9.51376 12.3675 9.80667 12.6667L11.22 14.08C11.595 14.4545 12.1033 14.6649 12.6333 14.6649C13.1633 14.6649 13.6717 14.4545 14.0467 14.08C14.2372 13.8937 14.3885 13.6713 14.4919 13.4257C14.5952 13.1802 14.6484 12.9164 14.6484 12.65C14.6484 12.3836 14.5952 12.1198 14.4919 11.8743C14.3885 11.6287 14.2372 11.4063 14.0467 11.22ZM8.39333 8.39332C7.92682 8.85866 7.33287 9.17529 6.68649 9.30322C6.04012 9.43116 5.37033 9.36466 4.76173 9.11212C4.15314 8.85958 3.63304 8.43233 3.26714 7.88435C2.90124 7.33637 2.70596 6.69224 2.70596 6.03332C2.70596 5.37441 2.90124 4.73028 3.26714 4.1823C3.63304 3.63432 4.15314 3.20707 4.76173 2.95453C5.37033 2.70199 6.04012 2.63549 6.68649 2.76343C7.33287 2.89136 7.92682 3.20799 8.39333 3.67332C8.70375 3.98296 8.95004 4.3508 9.11808 4.75577C9.28613 5.16073 9.37262 5.59488 9.37262 6.03332C9.37262 6.47177 9.28613 6.90591 9.11808 7.31088C8.95004 7.71585 8.70375 8.08369 8.39333 8.39332ZM13.1067 13.1067C13.0447 13.1691 12.971 13.2187 12.8897 13.2526C12.8085 13.2864 12.7213 13.3039 12.6333 13.3039C12.5453 13.3039 12.4582 13.2864 12.3769 13.2526C12.2957 13.2187 12.222 13.1691 12.16 13.1067L10.7467 11.6933C10.6842 11.6313 10.6346 11.5576 10.6007 11.4764C10.5669 11.3951 10.5495 11.308 10.5495 11.22C10.5495 11.132 10.5669 11.0448 10.6007 10.9636C10.6346 10.8824 10.6842 10.8086 10.7467 10.7467C10.8086 10.6842 10.8824 10.6346 10.9636 10.6007C11.0449 10.5669 11.132 10.5495 11.22 10.5495C11.308 10.5495 11.3951 10.5669 11.4764 10.6007C11.5576 10.6346 11.6314 10.6842 11.6933 10.7467L13.1067 12.16C13.1692 12.222 13.2187 12.2957 13.2526 12.3769C13.2864 12.4582 13.3039 12.5453 13.3039 12.6333C13.3039 12.7213 13.2864 12.8085 13.2526 12.8897C13.2187 12.9709 13.1692 13.0447 13.1067 13.1067Z" fill="#BBC3CF"/>
</svg>
